<svg xmlns="http://www.w3.org/2000/svg" viewBox="0 0 69.8 20.3"><path fill="#fff" d="M53 6.7c0 .3-.1.5-.2.7-.2.2-.4.3-.6.3-.2 0-.4-.1-.6-.3-.2-.2-.2-.4-.2-.7 0-.3.1-.5.2-.7.2-.2.4-.3.6-.3.2 0 .4.1.6.3s.2.4.2.7zm1.9-.8c0 .3-.1.5-.2.7-.2.2-.4.3-.6.3s-.4-.1-.6-.3c-.2-.2-.2-.4-.2-.7 0-.3.1-.5.2-.7.2-.2.4-.3.6-.3.2 0 .4.1.6.3s.2.4.2.7zM12.7 1.9c.3 0 .5.1.6.3.1.1.1.2.2.3s.1.2.1.3c0 .2-.1.4-.2.5s-.4.2-.7.2c-.3 0-.5-.1-.6-.2s-.2-.3-.2-.5.1-.4.2-.6.4-.3.6-.3zm1.7 0c.3 0 .5.1.6.3.1.1.1.2.2.3V2.8c0 .2-.1.4-.2.5s-.4.2-.6.2c-.3 0-.5-.1-.6-.2s-.2-.3-.2-.5.1-.4.2-.6.4-.3.6-.3z"/><g fill="#fff"><path d="M11.7 12.8c2.3 0 3.9-.3 5-.8 1-.5 1.5-1.4 1.5-2.5s-.5-2-1.5-2.5c-1-.7-2.7-1-5-1H8.5V4.9h3.2c2.7 0 4.7.1 6.1.4s2.4.8 2.9 1.4c.5.6.7 1.5.7 2.6 0 1.2-.2 2.1-.7 2.6-.6.7-1.5 1.2-2.9 1.4-1.4.3-3.4.4-6.1.4H8.5V7.1h3.2v5.7zM36 6v7.9h-3.3c-2.7 0-4.7-.1-6.1-.4-1.4-.3-2.4-.8-2.9-1.4-.5-.6-.7-1.5-.7-2.6V6h3.2v3.4c0 1.1.5 2 1.5 2.5 1 .6 2.7.8 5 .8V6H36zM50.5 8.3v1.1c0 1.1-.2 1.9-.6 2.5-.5.7-1.3 1.1-2.4 1.5s-2.9.5-5.1.5v-1.2c3.3-.2 4.9-1.3 4.9-3.3-2.9 0-5.1-.2-6.5-.5v5h-3.2v-9h3.2c0 1.1.5 2 1.5 2.5s2.7.8 5 .8h3.2zM65 7.1v6.7h-3.3v-.5c-1.4.3-3.6.5-6.5.5H52v-2.2c0-1.2.2-2.1.7-2.6.5-.7 1.5-1.2 2.9-1.4 1.4-.3 3.4-.4 6.1-.4H65zm-4.7 4.8c1-.5 1.5-1.4 1.5-2.5V8.3c-2.3 0-3.9.3-5 .8-1 .6-1.5 1.4-1.5 2.5v1.1c2.2.1 3.9-.2 5-.8zM69.8 4.9v2.2h-1.6c-.5 0-.8-.1-1.1-.3-.3-.2-.5-.5-.5-.8V4.9h3.2zm-3.3 3.4h3.2v5.6h-3.2V8.3z"/></g><g fill="#fff"><path d="M11.7 17.9c.1 0 .1.1.2.1l.1.1s0 .1.1.2V19c0 .1-.1.2-.2.3-.1.1-.1.1-.2.1s-.1 0-.2.1H8.8c-.1 0-.2 0-.3-.1 0 0 0-.1-.1-.1 0-.1-.1-.1-.1-.2v-2.4-.2c0-.1.1-.1.1-.2.1-.1.1-.1.2-.1H11.2c.1 0 .1 0 .2.1.1 0 .1.1.2.1s.1.1.1.2.1.1.1.2v.7c0 .1-.1.2-.2.3-.1.1-.1.1-.2.1h-.2c.3-.1.4 0 .5 0zm-2.5-.3h1.7c.1 0 .1 0 .2-.1l.1-.1v-.2-.2c0-.1-.1-.1-.1-.2-.1 0-.1-.1-.2-.1H9.4h-.1-.1V17.6zm0 1.2v.2H10.8c.1 0 .2 0 .2-.1 0 0 .1-.1.1-.2v-.2-.2c0-.1 0-.1-.1-.2l-.1-.1H9.2v.8zM14.8 19.5v-1.8l-.1.1-1.3 1.6c-.1.1-.1.1-.2.1s-.2.1-.3.1h-.2c-.1 0-.1-.1-.1-.1l-.1-.1V17h.7v1.8l1.4-1.7c.1-.1.1-.1.2-.1h.4l.1.1c0 .1.1.1.1.2v2.2h-.6zM16 19.1h1.7c.1 0 .1 0 .1-.1l.1-.1v-.2-.1s0-.1-.1-.1c0 0-.1 0-.2-.1H16V18h1.6s.1 0 .1-.1l.1-.1v-.1-.1s0-.1-.1-.1c0 0-.1-.1-.2-.1H16V17h2c.1 0 .2.1.3.1l.2.2c.1.1 0 .2 0 .3v.3c0 .1-.1.1-.1.2l-.1.1c-.1 0-.1 0-.2.1.1 0 .2 0 .2.1.1 0 .1.1.1.1s.1.1.1.2v.3c0 .1 0 .3-.1.4-.1.1-.1.2-.2.2-.1.1-.2.1-.3.1H16v-.6zM20.9 17h.3c.1 0 .2 0 .3.1.1 0 .2.1.3.1.1.1.2.1.2.2s.1.2.1.3c0 .1 0 .2.1.3v.2c0 .3 0 .5-.1.6-.1.2-.2.3-.3.4-.1.1-.2.1-.3.1-.1 0-.2.1-.3.1H20c-.1 0-.2 0-.3-.1s-.2-.1-.3-.1c-.1-.1-.2-.1-.2-.2-.1-.1-.1-.2-.1-.3v-.3-.2-.2c0-.1 0-.2.1-.3 0-.1.1-.2.1-.3.1-.1.1-.2.2-.2.1-.1.2-.1.3-.1s.1-.1.2-.1H20.9zm-1.2 1.6c0 .1.1.2.2.3.1.1.2.1.3.2h.8c.1 0 .2-.1.3-.2.1-.1.2-.2.2-.3v-.3-.2-.2c0-.1 0-.1-.1-.2 0-.1-.1-.1-.1-.2-.1 0-.1-.1-.2-.1s-.1 0-.2-.1h-.8c-.1 0-.1 0-.2.1-.1 0-.1.1-.2.1 0 0-.1.1-.1.2s0 .1-.1.2V18.2c.2.2.2.3.2.4zM24.9 18.2c.1 0 .2 0 .2.1.1 0 .1.1.2.1.1.1.1.1.1.2v.4c0 .1 0 .1-.1.2 0 .1-.1.1-.1.1-.1.1-.2.1-.3.1h-2c-.1 0-.1 0-.2-.1-.1 0-.1-.1-.1-.1V17.3v-.1c0-.1.1-.1.1-.1.1 0 .1-.1.2-.1H24.9c.1 0 .1 0 .2.1.1 0 .1.1.2.1.1.1.1.2.1.2v.4c0 .1-.1.1-.1.2 0 0-.1.1-.2.1 0 .1-.1.1-.2.1zm-.6-.2h.1c.1 0 .1 0 .1-.1l.1-.1v-.1-.1s0-.1-.1-.1c0 0-.1 0-.1-.1h-1-.2v.6h1.1zm-1 .9s0 .1 0 0v.1h1.2c.1 0 .1 0 .2-.1l.1-.1v-.1-.1s0-.1-.1-.1l-.1-.1H23.4v.5zM26.5 17v1h1.7c.1 0 .2.1.3.2.1.1.1.2.2.3V19.1c0 .1 0 .1-.1.2 0 .1-.1.1-.1.1-.1.1-.2.1-.3.1h-2.1c-.1 0-.1 0-.2-.1-.1 0-.1-.1-.1-.1V17h.7zm0 1.9v.1h1.3c.1 0 .1 0 .1-.1l.1-.1v-.1-.1c0-.1 0-.1-.1-.1l-.1-.1H26.6v.5zM29 17h.7v2.5H29V17zM32.5 19.5v-1.8l-.1.1-1.4 1.5c-.1.1-.1.1-.2.1s-.2.1-.3.1h-.2c-.1 0-.1-.1-.1-.1l-.1-.1V17h.7v1.8l1.4-1.7c.1-.1.1-.1.2-.1h.4l.1.1c0 .1.1.1.1.2v2.2h-.5zm-.6-3c.1 0 .1 0 .2-.1l.1-.1s0-.1.1-.1h.5c0 .1-.1.2-.1.3-.1.1-.1.2-.2.2-.1.1-.2.1-.4.2h-.8c-.2 0-.3-.1-.4-.2l-.2-.2c-.1-.1-.1-.2-.1-.3h.5s0 .1.1.1l.1.1c.1 0 .1.1.2.1h.4zM35.4 19.5h-.2c-.1 0-.1 0-.2-.1-.1 0-.1-.1-.1-.1V17h.7v2.1H37V17h.7v2.1h.4v.4h-2.7zM39.5 19.5h-.4c-.1 0-.2-.1-.2-.1-.1 0-.1-.1-.2-.2s-.2-.3-.2-.4v-.5-.3-.3c0-.1.1-.2.1-.2 0-.1.1-.1.2-.2s.2-.1.3-.1c.1 0 .2-.1.3-.1h1.1c.2 0 .3.1.5.1.1 0 .2.1.2.2.1.1.1.1.1.2s.1.1.1.2v.4c0 .1-.1.1-.1.2 0 0-.1.1-.2.1H39v.4c0 .1.1.1.1.2 0 0 .1.1.2.1h1.9v.4h-1.7zm.9-1.5h.1v-.1c0-.1 0-.1-.1-.2 0-.1-.1-.1-.1-.1-.1-.1-.2-.1-.3-.1h-.3H39.1c-.1 0-.1.1-.2.1-.1.1-.1.1-.1.2v.2h1.6zM43.8 19.5v-1.1h-1.5v1.1h-.7V17h.7v1h1.5v-1h.7v2.5h-.7zM45.9 19.5v-2.1h-1.2V17h3v.4h-1.2v2.1h-.6zM48.6 20.3h-.7v-2.9c0-.1 0-.1.1-.2l.1-.1c.1 0 .1-.1.2-.1H50c.1 0 .2 0 .3.1s.2.1.2.1l.2.2c0 .1.1.2.1.2v1c0 .1 0 .2-.1.2 0 .1-.1.1-.1.2l-.2.2c-.1 0-.2.1-.3.1h-1.5v1zm.8-1.2c.2 0 .3 0 .4-.1.1-.1.2-.1.2-.2 0 0 .1-.1.1-.2v-.4-.4c0-.1 0-.1-.1-.2 0-.1-.1-.2-.2-.2-.1-.1-.2-.1-.4-.1h-.7v1.6h.7zM53.9 16.5l.1-.1.1-.1s.1-.1.2-.1h.3c.2 0 .3 0 .4.1.1.1.2.1.2.3l1.4 2.5h.3v.5h-4.7V19h.3l1.4-2.5zm-.6 2.5h2.5l-1.1-2.2v-.1h-.1-.1c-.1 0 0 0 0 .1L53.3 19zM58.3 20.3h-.7l.5-.8-1.4-2.5h.7l1 1.9 1-1.9h.7l-1.8 3.3zM61.7 16.6h-.3c-.1 0-.2 0-.3.1 0 0-.1.1-.1.2v.2h1c.3 0 .5 0 .7.1.2.1.3.2.4.3.1.1.1.2.2.4v.8c0 .1 0 .2-.1.2s-.2.2-.2.3c-.1.1-.2.2-.3.2-.1.1-.2.1-.3.1H61.1c-.2 0-.2-.1-.3-.1-.1-.1-.2-.1-.3-.2-.1-.1-.1-.2-.1-.3v-1.6-.3c0-.1.1-.2.1-.3l.1-.1s.1-.1.2-.1.2-.1.3-.1H63v.4h-1.3zm-.8 1.9v.2c0 .1.1.1.1.2.1.1.1.1.2.1s.2.1.4.1h.3c.1 0 .2-.1.3-.1l.1-.1s.1-.1.1-.2v-.2-.2-.4c0-.1-.1-.2-.1-.2s-.1-.1-.2-.1-.2-.1-.4-.1h-.9v1zM65.4 17c.1 0 .3 0 .4.1.1 0 .2.1.3.1l.2.2c0 .1.1.2.1.4v1.5c0 .1 0 .1-.1.2-.1 0-.1.1-.2.1h-2c-.1 0-.2 0-.3-.1-.1 0-.1-.1-.1-.2s-.1-.1-.1-.2v-.2-.2-.3c0-.1.1-.2.2-.3 0-.1.1-.1.2-.1h1.6v-.2-.1s0-.1-.1-.1c0 0-.1-.1-.2-.1h-1.7V17h1.8zm-.9 1.4h-.1c-.1 0-.1 0-.1.1v.4c0 .1 0 .1.1.1 0 0 .1 0 .1.1H65.7V19v-.7h-1.2zM69.1 19.5v-1.8l-.1.1-1.3 1.6c-.1.1-.1.1-.2.1s-.2.1-.3.1H67c-.1 0-.1-.1-.1-.1l-.1-.1V17h.7v1.8l1.4-1.7c.1 0 .1-.1.2-.1h.4l.1.1c0 .1.1.1.1.2v2.2h-.6z"/></g><defs><path id="a" d="M29.99 10.486l-31.05 7.738-8.39-33.67 31.05-7.737z"/></defs><defs><path id="b" d="M-5-18.5h32v34.7H-5z"/></defs><path fill="#fff" d="M2 12.1c0 1.4 1.9 2.2 1.9 2.2l1.9-9.1-1.4-1.1-2.4 8z"/><path fill="#666766" d="M3.6 3.4C3.1 4.2.9 7.6.3 8.2c-.9.9 1.6 2.4 1.6 2.4l2.5-6.4M.1 7.1"/><path fill="#fff" d="M14.1 5s-4-.6-4.4-1.2C9.1 3 8.9.1 8.2.1H6.4c-.7 0-.5.7-1.6.7C3.7.9 3.5 2 3.5 2H5c1 0 1.3.6 1.3.6s.1 1.4-.2 1.6c-.4.4-2.5-.4-2.5-.4s1 1.1 1 1.5M6.4.7c.1 0 .2.1.2.2s-.1.2-.2.2c-.2 0-.3-.1-.3-.2s.1-.2.3-.2zm0 0"/><path fill="#fff" d="M7.2 11.9s-.6-4.2-.1-5.3c.5-1 5.1-.6 5.1-.6L4.9 4.4l.3 2 .6 7.5 1.4-2z"/><path fill="#fff" d="M4.4 14.3c.4 1.4 3.3 3.4 3.3 3.4L6.5 5.3l-1-.3-1.1 9.3z"/></svg>