<svg xmlns="http://www.w3.org/2000/svg" xmlns:xlink="http://www.w3.org/1999/xlink" viewBox="0 0 170.1 170.1"><defs><path id="a" d="M65 29.8h35.3v47.9H65z"/></defs><clipPath id="b"><use xlink:href="#a" overflow="visible"/></clipPath><path clip-path="url(#b)" d="M100.3 29.8H65v2h4.9v10.8c0 5.2 7.1 9.1 10.8 10.8C77 55.1 69.9 59 69.9 64.2V75H65v2h35.3v-2h-4.9V64.2c0-5.2-7.1-9.1-10.8-10.8 3.7-1.7 10.8-5.6 10.8-10.8V31.8h4.9v-2zm-6.8 34.4V75H71.9V64.2c0-4.3 7.4-8.4 10.8-9.8 3.4 1.4 10.8 5.5 10.8 9.8zm0-21.6c0 4.3-7.4 8.4-10.8 9.8-3.4-1.4-10.8-5.5-10.8-9.8V31.8h21.6v10.8zm0 0"/></svg>