<svg xmlns="http://www.w3.org/2000/svg" viewBox="0 0 170.1 170.1" fill="#fff" cursor="pointer"><path d="M88.5 85.8h5.7c0-6.3-5.1-11.5-11.5-11.5V80c3.2 0 5.8 2.6 5.8 5.8zm22.9 0c0-15.8-12.8-28.6-28.6-28.6v5.7c12.6 0 22.9 10.3 22.9 22.9h5.7zM82.8 39.9v5.7c22.1 0 40.1 18 40.1 40.1h5.7c0-25.2-20.5-45.8-45.8-45.8zm0 0"/><path d="M114 112.1c.2 1.2-.2 2.2-1.1 3.1l-10.3 10.2c-.5.5-1.1 1-1.8 1.3-.7.4-1.5.6-2.2.7h-1.5c-1 0-2.6-.2-4.8-.5-2.2-.3-4.9-1.2-8-2.5-3.2-1.3-6.8-3.3-10.8-5.9-4-2.6-8.3-6.2-12.8-10.8-3.6-3.6-6.6-7-9-10.2-2.4-3.2-4.3-6.2-5.7-9-1.4-2.8-2.5-5.3-3.2-7.5-.7-2.2-1.2-4.2-1.5-5.8-.3-1.6-.4-2.9-.3-3.8.1-.9.1-1.4.1-1.5.1-.7.3-1.5.7-2.2.4-.7.8-1.4 1.3-1.8l10.3-10.3c.7-.7 1.5-1.1 2.5-1.1.7 0 1.3.2 1.8.6.5.4 1 .9 1.3 1.4l8.3 15.7c.5.8.6 1.7.4 2.7-.2 1-.6 1.8-1.3 2.5l-3.8 3.8c-.1.1-.2.3-.3.5-.1.2-.1.4-.1.6.2 1.1.7 2.3 1.4 3.7.6 1.2 1.6 2.7 2.9 4.5 1.3 1.8 3.1 3.8 5.5 6.1 2.3 2.4 4.4 4.2 6.2 5.5 1.8 1.3 3.3 2.3 4.5 2.9 1.2.6 2.1 1 2.8 1.1l1 .2c.1 0 .3 0 .5-.1s.4-.2.5-.3l4.4-4.5c.9-.8 2-1.2 3.2-1.2.9 0 1.6.2 2.1.5h.1l14.9 8.8c.9.7 1.6 1.5 1.8 2.6zm0 0"/></svg>