<svg xmlns="http://www.w3.org/2000/svg" width="29px" height="26px" viewBox="60 45 42 39"><path fill-rule="evenodd" clip-rule="evenodd" fill="#FFF" d="M95.7 56.8l1.4-1.4-1.4-1.4-8.4-8.4.1-.1-1.5-1.5-.1.1-.1-.1-1.4 1.4.1.1L61 69.2v11.3h11l23.7-23.7zM71.2 78.5H63V70l17.9-18 8.3 8.4-18 18.1zm19.5-19.6l-8.3-8.4 3.5-3.6 8.4 8.4-3.6 3.6zm11.5 18.4s-1.1 2.3-3.1 2.6c-1.7.3-3.7-.7-5.9-2.9-2.5-2.5-5.1-3.7-7.8-3.6-4.2.2-6.9 3.5-7 3.6l1.5 1.3s2.3-2.8 5.6-2.9c2.1-.1 4.2.9 6.3 3 2.4 2.4 4.6 3.6 6.7 3.6.3 0 .7 0 1-.1 3.1-.6 4.5-3.7 4.6-3.8l-1.9-.8z"/></svg>